<svg width="72" height="65" viewBox="0 0 72 65" fill="none" xmlns="http://www.w3.org/2000/svg">
<path d="M69.5482 19.7733C66.9476 17.8039 63.3634 18.4874 61.5422 21.3001L48.0529 42.1364C46.2317 44.9491 46.8639 48.8255 49.4646 50.7953C52.0653 52.765 55.6494 52.0812 57.4701 49.2684L70.96 28.4321C72.7807 25.6195 72.1489 21.7428 69.5482 19.7733Z" fill="white"/>
<path d="M60.1569 12.3667C62.3726 9.18677 61.7851 4.6663 58.8448 2.27001C55.9049 -0.126229 51.725 0.509076 49.5098 3.68904L14.9657 53.2688C12.7501 56.449 13.3375 60.9692 16.2777 63.3656C19.2179 65.7621 23.3975 65.1267 25.6131 61.9465L60.1569 12.3667Z" fill="white"/>
<path d="M28.8401 4.23661C26.162 2.13215 22.4135 2.77423 20.4677 5.67078L1.71938 33.5802C-0.226401 36.4767 0.367294 40.5309 3.04548 42.6354C5.72361 44.7397 9.47204 44.0975 11.4178 41.2011L30.1661 13.2918C32.1119 10.3952 31.5182 6.34111 28.8401 4.23661Z" fill="white"/>
</svg>
